<svg width="12" height="7" viewBox="0 0 12 7" fill="none" xmlns="http://www.w3.org/2000/svg">
<path fill-rule="evenodd" clip-rule="evenodd" d="M4.18812 6.79391C3.91534 7.06786 3.47213 7.06882 3.19818 6.79604L0.871208 4.47905C0.723001 4.33148 0.654695 4.13403 0.666403 3.94048C0.623873 3.85012 0.600098 3.7492 0.600098 3.64272C0.600098 3.46641 0.665281 3.30532 0.772864 3.18224C0.803487 3.05991 0.86753 2.94435 0.964763 2.85015L3.32319 0.565193C3.60085 0.296185 4.04401 0.303198 4.31302 0.580855C4.58202 0.858513 4.57501 1.30167 4.29735 1.57068L2.8812 2.94272L10.4001 2.94272C10.7867 2.94272 11.1001 3.25612 11.1001 3.64272C11.1001 4.02932 10.7867 4.34272 10.4001 4.34272L2.71845 4.34272L4.186 5.80396C4.45995 6.07674 4.4609 6.51996 4.18812 6.79391Z" fill="#991F35"/>
</svg>
