<svg width="93" height="20" viewBox="0 0 93 20" fill="none" xmlns="http://www.w3.org/2000/svg">
<path d="M12.4721 10.9873C12.4774 10.0101 12.7073 9.13472 13.1618 8.36115C13.6259 7.58764 14.2471 6.98742 15.0254 6.56051C15.8134 6.12407 16.6721 5.90838 17.6014 5.91342C18.6648 5.91918 19.607 6.18776 20.4281 6.71915C21.2588 7.24101 21.8583 7.98198 22.2268 8.94204L20.258 8.93137C20.0022 8.40304 19.6451 8.0083 19.1866 7.74713C18.7282 7.48597 18.1971 7.35375 17.5936 7.35048C16.9325 7.34689 16.3425 7.49219 15.8236 7.78638C15.3046 8.08056 14.8951 8.50468 14.5951 9.05874C14.3047 9.61284 14.1575 10.2587 14.1535 10.9964C14.1495 11.7341 14.2897 12.3816 14.5741 12.9388C14.8681 13.4961 15.2729 13.9294 15.7886 14.2388C16.3043 14.5386 16.8927 14.6903 17.5538 14.6939C18.1573 14.6971 18.6897 14.5707 19.151 14.3145C19.6123 14.0583 19.9736 13.6675 20.2352 13.142L22.2039 13.1526C21.8251 14.1086 21.2176 14.8431 20.3813 15.3559C19.5545 15.8688 18.6095 16.1223 17.546 16.1165C16.6072 16.1114 15.7509 15.8912 14.9772 15.4559C14.2036 15.011 13.5889 14.3993 13.1333 13.6208C12.6872 12.8423 12.4668 11.9645 12.4721 10.9873ZM27.5397 16.2139C26.7924 16.2098 26.1179 16.0385 25.5161 15.6999C24.9144 15.3517 24.4428 14.8701 24.1012 14.2551C23.7597 13.6305 23.5912 12.9111 23.5956 12.0967C23.5999 11.292 23.7811 10.5792 24.1389 9.95839C24.4968 9.33758 24.9832 8.86119 25.5981 8.5292C26.2131 8.19721 26.899 8.03327 27.6559 8.03737C28.4127 8.04148 29.0968 8.21285 29.7081 8.55149C30.3194 8.89013 30.8007 9.37177 31.1518 9.99642C31.5029 10.6211 31.6762 11.3358 31.6719 12.1405C31.6675 12.9453 31.4816 13.658 31.1142 14.2788C30.7467 14.8995 30.2459 15.3806 29.6117 15.7221C28.9872 16.054 28.2965 16.218 27.5397 16.2139ZM27.5474 14.7912C27.9689 14.7934 28.3622 14.695 28.7274 14.4958C29.1021 14.2966 29.4055 13.9965 29.6377 13.5953C29.8698 13.1942 29.9874 12.7062 29.9905 12.1314C29.9936 11.5566 29.8861 11.0722 29.6678 10.6782C29.4497 10.2746 29.1591 9.97124 28.7961 9.76808C28.4332 9.56491 28.0409 9.46219 27.6194 9.4599C27.1979 9.45762 26.8045 9.55608 26.4394 9.7553C26.0838 9.95456 25.7995 10.2548 25.5866 10.656C25.3737 11.0477 25.2657 11.5309 25.2626 12.1058C25.2579 12.9584 25.4699 13.6206 25.8985 14.0924C26.3367 14.5547 26.8863 14.7876 27.5474 14.7912ZM34.9658 5.49023L34.9081 16.1245L33.2698 16.1156L33.3275 5.48135L34.9658 5.49023ZM38.7549 5.51078L38.6972 16.145L37.059 16.1361L37.1166 5.5019L38.7549 5.51078ZM48.1278 12.0429C48.1262 12.3399 48.1055 12.6081 48.0659 12.8474L42.0159 12.8146C42.0604 13.4471 42.2923 13.9562 42.7118 14.3417C43.1313 14.7272 43.6476 14.9216 44.2607 14.9249C45.1421 14.9297 45.7668 14.5642 46.1349 13.8285L47.9025 13.8381C47.659 14.5649 47.2198 15.1613 46.585 15.6273C45.9598 16.0838 45.1825 16.3095 44.2532 16.3045C43.4964 16.3004 42.8171 16.129 42.2153 15.7905C41.6232 15.4423 41.1564 14.9608 40.8148 14.3458C40.4829 13.7212 40.3191 13.0018 40.3235 12.1874C40.3279 11.3731 40.4947 10.6603 40.8237 10.0489C41.1624 9.42796 41.6297 8.95146 42.2255 8.61937C42.8309 8.28733 43.5216 8.12342 44.2976 8.12762C45.0448 8.13168 45.7098 8.29815 46.2924 8.62706C46.8751 8.95596 47.3276 9.41829 47.6502 10.014C47.9727 10.6002 48.1319 11.2765 48.1278 12.0429ZM46.4205 11.5163C46.4142 10.9127 46.2012 10.4277 45.7817 10.0614C45.3621 9.69505 44.841 9.51019 44.2182 9.50681C43.653 9.50375 43.1682 9.68315 42.7638 10.045C42.3595 10.3973 42.1174 10.8798 42.0374 11.4926L46.4205 11.5163ZM49.1929 12.2355C49.1973 11.4212 49.364 10.7084 49.6931 10.097C50.0318 9.47607 50.4942 8.99954 51.0805 8.6674C51.6667 8.33525 52.3382 8.17123 53.0951 8.17534C54.0531 8.18053 54.8422 8.41475 55.4625 8.87798C56.0923 9.33169 56.5152 9.98068 56.7309 10.825L54.9634 10.8154C54.8218 10.4218 54.5935 10.114 54.2785 9.89191C53.9636 9.66984 53.5666 9.55751 53.0876 9.55491C52.417 9.55128 51.8792 9.78788 51.4742 10.2647C51.0788 10.732 50.8789 11.392 50.8742 12.2447C50.8696 13.0973 51.0624 13.7642 51.4526 14.2454C51.8524 14.7266 52.3876 14.969 53.0582 14.9726C54.0067 14.9778 54.6364 14.5644 54.9475 13.7326L56.7151 13.7422C56.4808 14.5457 56.0462 15.1852 55.4113 15.6608C54.7765 16.1268 53.9896 16.3573 53.0507 16.3522C52.2939 16.3481 51.6241 16.1768 51.0416 15.8383C50.459 15.4903 50.0018 15.0087 49.6698 14.3938C49.3474 13.7693 49.1885 13.0499 49.1929 12.2355ZM60.2812 9.68015L60.2574 14.0632C60.2558 14.3602 60.3217 14.5761 60.4551 14.711C60.5981 14.8363 60.8373 14.8998 61.1726 14.9017L62.1785 14.9071L62.1711 16.2723L60.8778 16.2653C60.1401 16.2613 59.5758 16.0858 59.1849 15.7388C58.7939 15.3918 58.6006 14.8302 58.6048 14.0542L58.6285 9.67119L57.6945 9.66612L57.7017 8.32966L58.6358 8.33472L58.6465 6.36595L60.2991 6.37492L60.2884 8.34369L62.2141 8.35413L62.2068 9.6906L60.2812 9.68015ZM64.5632 7.31779C64.2662 7.31618 64.0176 7.21423 63.8175 7.01195C63.6175 6.80967 63.5182 6.56004 63.5198 6.26304C63.5214 5.96605 63.6234 5.71751 63.8257 5.51741C64.0279 5.31731 64.2776 5.21807 64.5746 5.21968C64.862 5.22124 65.1057 5.32316 65.3058 5.52544C65.5059 5.72772 65.6052 5.97735 65.6036 6.27434C65.6019 6.57134 65.5 6.81988 65.2977 7.01998C65.0954 7.22008 64.8506 7.31934 64.5632 7.31779ZM65.3622 8.3712L65.3193 16.2894L63.6811 16.2805L63.724 8.36232L65.3622 8.3712ZM70.904 16.449C70.1568 16.445 69.4823 16.2737 68.8805 15.9351C68.2788 15.5869 67.8072 15.1053 67.4656 14.4903C67.1241 13.8657 66.9556 13.1462 66.96 12.3319C66.9643 11.5271 67.1454 10.8144 67.5033 10.1936C67.8612 9.57276 68.3476 9.09636 68.9625 8.76438C69.5775 8.43239 70.2634 8.26845 71.0202 8.27255C71.7771 8.27665 72.4612 8.44803 73.0725 8.78667C73.6838 9.1253 74.1651 9.60695 74.5162 10.2316C74.8673 10.8562 75.0406 11.5709 75.0363 12.3757C75.0319 13.1805 74.846 13.8932 74.4786 14.514C74.1111 15.1347 73.6103 15.6158 72.9761 15.9573C72.3516 16.2892 71.6609 16.4531 70.904 16.449ZM70.9118 15.0263C71.3333 15.0286 71.7266 14.9302 72.0918 14.7309C72.4665 14.5318 72.7699 14.2316 73.002 13.8305C73.2342 13.4294 73.3518 12.9414 73.3549 12.3666C73.358 11.7918 73.2505 11.3073 73.0322 10.9134C72.8141 10.5098 72.5235 10.2064 72.1605 10.0033C71.7976 9.80009 71.4053 9.69737 70.9838 9.69508C70.5623 9.6928 70.1689 9.79126 69.8038 9.99047C69.4482 10.1897 69.1639 10.49 68.951 10.8912C68.7381 11.2829 68.6301 11.7661 68.627 12.3409C68.6223 13.1936 68.8343 13.8558 69.2629 14.3276C69.7011 14.7898 70.2507 15.0228 70.9118 15.0263ZM80.6729 8.3249C81.2956 8.32828 81.8506 8.46063 82.3378 8.72195C82.8346 8.98332 83.2205 9.36864 83.4956 9.87791C83.7707 10.3872 83.9062 11.0011 83.9024 11.7196L83.877 16.39L82.2531 16.3812L82.2771 11.9551C82.281 11.2461 82.1067 10.7039 81.7542 10.3283C81.4018 9.9432 80.9191 9.74897 80.3059 9.74564C79.6928 9.74231 79.2031 9.93127 78.837 10.3125C78.4805 10.6842 78.3003 11.2246 78.2965 11.9335L78.2725 16.3597L76.6342 16.3508L76.6772 8.43257L78.3154 8.44145L78.3105 9.3468C78.5805 9.02252 78.922 8.77049 79.335 8.59069C79.7575 8.41095 80.2035 8.32235 80.6729 8.3249ZM88.8401 16.5463C88.2174 16.5429 87.6575 16.4297 87.1606 16.2067C86.6732 15.9741 86.2869 15.6654 86.0015 15.2806C85.7162 14.8863 85.5653 14.4495 85.5488 13.9704L87.2445 13.9796C87.2714 14.3151 87.428 14.5986 87.7141 14.83C88.0099 15.052 88.3782 15.1642 88.8189 15.1666C89.2787 15.1691 89.6337 15.0848 89.8837 14.9137C90.1434 14.733 90.2739 14.5038 90.2754 14.226C90.2771 13.929 90.1345 13.7079 89.8479 13.5626C89.5709 13.4174 89.1262 13.2569 88.514 13.0811C87.9209 12.915 87.438 12.7543 87.0652 12.599C86.6924 12.4437 86.3679 12.2072 86.0918 11.8896C85.8252 11.572 85.6934 11.1545 85.6962 10.6371C85.6985 10.2156 85.8251 9.83306 86.076 9.48951C86.3271 9.13639 86.683 8.86048 87.144 8.66179C87.6145 8.46314 88.1516 8.36546 88.7551 8.36873C89.6557 8.37362 90.3778 8.60747 90.9214 9.07029C91.4746 9.52358 91.7682 10.1431 91.8023 10.9289L90.164 10.92C90.1372 10.5654 89.995 10.282 89.7375 10.0698C89.48 9.85767 89.1309 9.75039 88.6902 9.748C88.2591 9.74566 87.9281 9.8253 87.6973 9.98692C87.4665 10.1485 87.3503 10.3635 87.3489 10.6317C87.3477 10.8425 87.4234 11.0201 87.5759 11.1647C87.7284 11.3092 87.9146 11.4252 88.1345 11.5126C88.3544 11.5905 88.6796 11.6928 89.1101 11.8197C89.6841 11.9761 90.1526 12.1367 90.5158 12.3016C90.8886 12.4569 91.2083 12.6886 91.4749 12.9966C91.7415 13.3046 91.8782 13.7125 91.885 14.2203C91.8826 14.6706 91.7559 15.0723 91.5048 15.4254C91.2538 15.7786 90.8979 16.0545 90.4369 16.2532C89.9855 16.4519 89.4533 16.5496 88.8401 16.5463Z" fill="#292929"/>
<path fill-rule="evenodd" clip-rule="evenodd" d="M5.74778 8.90511C2.68433 7.84825 0.366579 5.07616 0.0548127 1.63949L0 1.03528C4.63865 0.614472 8.74397 4.00646 9.21686 8.62767C9.21829 8.62807 9.21972 8.62847 9.22115 8.62887L9.5683 8.72608C8.81664 11.4103 6.03135 12.9769 3.34717 12.2252L3.00002 12.128C3.41526 10.6452 4.45116 9.50338 5.74778 8.90511Z" fill="url(#paint0_linear_128_702)"/>
<path d="M9 8.5C9 8.22386 9.22386 8 9.5 8V8C9.77614 8 10 8.22386 10 8.5V20H9V8.5Z" fill="url(#paint1_linear_128_702)"/>
<path d="M9 20V19L68.5 19C68.7761 19 69 19.2239 69 19.5V19.5C69 19.7761 68.7761 20 68.5 20L9 20Z" fill="url(#paint2_linear_128_702)"/>
<defs>
<linearGradient id="paint0_linear_128_702" x1="4.78416" y1="1" x2="4.78416" y2="12.4135" gradientUnits="userSpaceOnUse">
<stop stop-color="#991F35"/>
<stop offset="1" stop-color="#330A12"/>
</linearGradient>
<linearGradient id="paint1_linear_128_702" x1="9.5" y1="8" x2="9.5" y2="20" gradientUnits="userSpaceOnUse">
<stop stop-color="#991F35"/>
<stop offset="1" stop-color="#330A12"/>
</linearGradient>
<linearGradient id="paint2_linear_128_702" x1="9" y1="19.5" x2="69" y2="19.5" gradientUnits="userSpaceOnUse">
<stop stop-color="#991F35"/>
<stop offset="1" stop-color="#330A12"/>
</linearGradient>
</defs>
</svg>
