<svg width="137" height="21" viewBox="0 0 137 21" fill="none" xmlns="http://www.w3.org/2000/svg">
<path d="M16.7186 16.1427C16.048 16.1391 15.445 16.0208 14.9098 15.788C14.3746 15.5456 13.9548 15.208 13.6506 14.7752C13.3464 14.3424 13.1958 13.8386 13.1989 13.2638L14.9521 13.2733C14.9881 13.7046 15.1539 14.06 15.4493 14.3394C15.7544 14.6189 16.18 14.7602 16.7261 14.7631C17.2913 14.7662 17.7327 14.6344 18.0503 14.3679C18.368 14.0918 18.528 13.7382 18.5303 13.3071C18.5322 12.9717 18.433 12.6982 18.233 12.4863C18.0425 12.2745 17.7991 12.1103 17.5028 11.9937C17.216 11.8772 16.8143 11.7505 16.2976 11.6135C15.6471 11.4376 15.1163 11.2622 14.7053 11.0875C14.3039 10.9033 13.9605 10.6236 13.6752 10.2484C13.3898 9.87325 13.2488 9.37429 13.2521 8.75156C13.2553 8.17674 13.4017 7.67454 13.6914 7.24499C13.9812 6.81543 14.3854 6.48708 14.904 6.25996C15.4225 6.03284 16.0219 5.92112 16.7021 5.92481C17.6698 5.93006 18.4588 6.17864 19.0693 6.67057C19.6894 7.15297 20.0308 7.81588 20.0932 8.65932L18.2826 8.6495C18.2558 8.28529 18.085 7.97299 17.7703 7.71261C17.4555 7.45222 17.0395 7.32063 16.5221 7.31782C16.0527 7.31527 15.6688 7.43295 15.3705 7.67085C15.0723 7.90875 14.9219 8.25284 14.9194 8.70312C14.9178 9.00969 15.0074 9.26407 15.1884 9.46624C15.3789 9.65889 15.6176 9.81347 15.9044 9.93C16.1912 10.0465 16.5833 10.1732 17.0808 10.31C17.7408 10.4956 18.2763 10.6806 18.6873 10.8648C19.1078 11.0491 19.4608 11.3337 19.7461 11.7185C20.0411 12.0937 20.1869 12.5975 20.1834 13.2298C20.1807 13.7376 20.0392 14.2158 19.7589 14.6646C19.4882 15.1134 19.0886 15.4753 18.5602 15.7503C18.0414 16.0157 17.4275 16.1465 16.7186 16.1427ZM26.2404 8.04596C26.844 8.04924 27.3798 8.18148 27.8478 8.4427C28.3254 8.70397 28.697 9.08921 28.9625 9.59843C29.2376 10.1077 29.3732 10.7216 29.3693 11.4401L29.3439 16.1106L27.72 16.1018L27.7441 11.6756C27.7479 10.9667 27.5736 10.4244 27.2211 10.0489C26.8688 9.66372 26.386 9.46948 25.7728 9.46616C25.1597 9.46283 24.6701 9.65179 24.3039 10.033C23.9474 10.4047 23.7672 10.9451 23.7634 11.654L23.7394 16.0802L22.1011 16.0713L22.1588 5.43705L23.7971 5.44593L23.7773 9.08169C24.057 8.74788 24.4081 8.49111 24.8306 8.31137C25.2627 8.13168 25.7326 8.04321 26.2404 8.04596ZM34.8675 16.2699C34.1202 16.2658 33.4457 16.0945 32.844 15.7559C32.2423 15.4077 31.7706 14.9261 31.4291 14.3111C31.0875 13.6865 30.919 12.9671 30.9234 12.1527C30.9278 11.348 31.1089 10.6352 31.4667 10.0144C31.8246 9.39359 32.311 8.9172 32.926 8.58521C33.5409 8.25322 34.2268 8.08928 34.9837 8.09338C35.7405 8.09749 36.4246 8.26886 37.036 8.6075C37.6473 8.94614 38.1285 9.42778 38.4796 10.0524C38.8307 10.6771 39.0041 11.3918 38.9997 12.1965C38.9953 13.0013 38.8094 13.714 38.442 14.3348C38.0746 14.9555 37.5738 15.4366 36.9396 15.7781C36.315 16.1101 35.6243 16.274 34.8675 16.2699ZM34.8752 14.8472C35.2967 14.8495 35.6901 14.751 36.0552 14.5518C36.43 14.3526 36.7334 14.0525 36.9655 13.6513C37.1976 13.2502 37.3152 12.7622 37.3183 12.1874C37.3214 11.6126 37.2139 11.1282 36.9957 10.7342C36.7775 10.3306 36.4869 10.0273 36.124 9.82409C35.761 9.62093 35.3688 9.5182 34.9472 9.51592C34.5257 9.51363 34.1323 9.61209 33.7672 9.81131C33.4116 10.0106 33.1274 10.3108 32.9144 10.7121C32.7015 11.1037 32.5935 11.5869 32.5904 12.1618C32.5858 13.0144 32.7977 13.6766 33.2263 14.1484C33.6645 14.6107 34.2142 14.8436 34.8752 14.8472ZM42.2726 9.4263C42.5524 9.06376 42.9324 8.75923 43.4128 8.51274C43.8932 8.26625 44.4352 8.14464 45.0387 8.14791C45.7285 8.15165 46.3551 8.32751 46.9185 8.67546C47.4915 9.0139 47.9392 9.49057 48.2616 10.1055C48.584 10.7204 48.743 11.4254 48.7387 12.2206C48.7344 13.0158 48.5677 13.7286 48.2385 14.3592C47.9094 14.9801 47.4565 15.4663 46.8797 15.8177C46.3126 16.1595 45.6842 16.3285 44.9944 16.3248C44.3908 16.3215 43.855 16.1988 43.3868 15.9568C42.9187 15.7052 42.5372 15.3965 42.2422 15.0308L42.2155 19.9456L40.5773 19.9367L40.6406 8.2534L42.2789 8.26229L42.2726 9.4263ZM47.0717 12.2116C47.0747 11.6655 46.9623 11.1954 46.7345 10.8014C46.5163 10.3978 46.221 10.0944 45.8484 9.8912C45.4855 9.67846 45.0933 9.57094 44.6717 9.56865C44.2598 9.56642 43.8664 9.66967 43.4916 9.87842C43.1264 10.0872 42.8278 10.3922 42.5957 10.7933C42.3731 11.1945 42.2604 11.6681 42.2574 12.2142C42.2545 12.7603 42.362 13.2399 42.5802 13.6531C42.8079 14.0567 43.1032 14.3649 43.4662 14.5776C43.8386 14.7904 44.2309 14.8979 44.6428 14.9001C45.0644 14.9024 45.4577 14.7992 45.8229 14.5904C46.1978 14.3721 46.4965 14.0575 46.719 13.6468C46.9512 13.236 47.0688 12.7576 47.0717 12.2116ZM53.2105 16.3693C52.5878 16.366 52.028 16.2528 51.531 16.0297C51.0436 15.7971 50.6573 15.4884 50.3719 15.1037C50.0867 14.7093 49.9357 14.2726 49.9192 13.7935L51.6149 13.8026C51.6418 14.1381 51.7984 14.4216 52.0845 14.6531C52.3803 14.875 52.7486 14.9872 53.1893 14.9896C53.6491 14.9921 54.0041 14.9078 54.2541 14.7367C54.5138 14.5561 54.6443 14.3269 54.6459 14.049C54.6475 13.752 54.505 13.5309 54.2183 13.3856C53.9413 13.2404 53.4966 13.0799 52.8844 12.9042C52.2913 12.7381 51.8084 12.5774 51.4356 12.4221C51.0628 12.2667 50.7383 12.0303 50.4622 11.7126C50.1957 11.395 50.0638 10.9775 50.0666 10.4602C50.0689 10.0386 50.1955 9.6561 50.4465 9.31255C50.6975 8.95943 51.0535 8.68352 51.5144 8.48482C51.9849 8.28618 52.522 8.1885 53.1256 8.19177C54.0261 8.19666 54.7482 8.43051 55.2918 8.89333C55.845 9.34662 56.1386 9.96617 56.1727 10.752L54.5344 10.7431C54.5076 10.3885 54.3655 10.1051 54.1079 9.89288C53.8504 9.68071 53.5013 9.57343 53.0606 9.57104C52.6295 9.5687 52.2985 9.64834 52.0677 9.80996C51.8369 9.97158 51.7207 10.1865 51.7193 10.4548C51.7181 10.6655 51.7938 10.8432 51.9463 10.9877C52.0988 11.1323 52.285 11.2482 52.5049 11.3357C52.7249 11.4135 53.05 11.5159 53.4805 11.6427C54.0545 11.7991 54.5231 11.9598 54.8862 12.1246C55.259 12.2799 55.5787 12.5116 55.8453 12.8196C56.1119 13.1276 56.2486 13.5356 56.2554 14.0434C56.253 14.4937 56.1263 14.8954 55.8753 15.2485C55.6242 15.6016 55.2683 15.8775 54.8073 16.0762C54.3559 16.275 53.8237 16.3727 53.2105 16.3693ZM68.2532 6.33373L68.2459 7.67019L65.5873 7.65577L65.5404 16.3069L63.9022 16.298L63.9491 7.64689L61.2762 7.63239L61.2834 6.29593L68.2532 6.33373ZM73.292 16.4783C72.5447 16.4742 71.8702 16.3029 71.2685 15.9643C70.6668 15.6161 70.1951 15.1345 69.8536 14.5195C69.5121 13.8949 69.3435 13.1755 69.3479 12.3611C69.3523 11.5564 69.5334 10.8436 69.8912 10.2228C70.2491 9.60198 70.7355 9.12559 71.3505 8.7936C71.9654 8.46161 72.6513 8.29767 73.4082 8.30177C74.165 8.30588 74.8491 8.47725 75.4605 8.81589C76.0718 9.15453 76.553 9.63617 76.9041 10.2608C77.2552 10.8855 77.4286 11.6002 77.4242 12.4049C77.4198 13.2097 77.2339 13.9224 76.8665 14.5432C76.4991 15.1639 75.9983 15.645 75.3641 15.9865C74.7395 16.3184 74.0488 16.4824 73.292 16.4783ZM73.2997 15.0556C73.7212 15.0578 74.1146 14.9594 74.4797 14.7602C74.8545 14.561 75.1579 14.2609 75.39 13.8597C75.6221 13.4586 75.7397 12.9706 75.7428 12.3958C75.7459 11.821 75.6384 11.3366 75.4202 10.9426C75.202 10.539 74.9114 10.2356 74.5485 10.0325C74.1855 9.82931 73.7933 9.72659 73.3717 9.7243C72.9502 9.72202 72.5569 9.82048 72.1917 10.0197C71.8361 10.219 71.5519 10.5192 71.3389 10.9204C71.126 11.3121 71.018 11.7953 71.0149 12.3702C71.0103 13.2228 71.2223 13.885 71.6508 14.3568C72.089 14.8191 72.6387 15.052 73.2997 15.0556ZM84.4404 7.74365L84.4245 10.6752L87.8735 10.694L87.8662 12.0304L84.4173 12.0117L84.4007 15.0727L88.2807 15.0937L88.2735 16.4302L82.7552 16.4002L82.8094 6.3983L88.3277 6.42823L88.3205 7.76469L84.4404 7.74365ZM93.7045 12.4501L96.2407 16.4734L94.3869 16.4633L92.6914 13.7667L91.0673 16.4453L89.3572 16.436L91.9363 12.5555L89.4002 8.51784L91.254 8.52789L92.9495 11.2245L94.5736 8.5459L96.2837 8.55517L93.7045 12.4501ZM99.1375 9.7347C99.4173 9.37215 99.7973 9.06763 100.278 8.82114C100.758 8.57465 101.3 8.45304 101.904 8.45631C102.593 8.46005 103.22 8.6359 103.783 8.98386C104.356 9.32229 104.804 9.79896 105.126 10.4139C105.449 11.0288 105.608 11.7338 105.604 12.529C105.599 13.3242 105.433 14.037 105.103 14.6676C104.774 15.2885 104.321 15.7747 103.745 16.126C103.178 16.4679 102.549 16.6369 101.859 16.6332C101.256 16.6299 100.72 16.5072 100.252 16.2652C99.7836 16.0135 99.4021 15.7049 99.1071 15.3392L99.0804 20.254L97.4422 20.2451L97.5055 8.5618L99.1438 8.57068L99.1375 9.7347ZM103.937 12.52C103.94 11.9739 103.827 11.5038 103.599 11.1098C103.381 10.7062 103.086 10.4028 102.713 10.1996C102.35 9.98685 101.958 9.87934 101.537 9.87705C101.125 9.87482 100.731 9.97807 100.357 10.1868C99.9913 10.3956 99.6927 10.7006 99.4606 11.1017C99.238 11.5029 99.1253 11.9765 99.1223 12.5226C99.1194 13.0687 99.2269 13.5483 99.4451 13.9614C99.6728 14.3651 99.9681 14.6733 100.331 14.886C100.704 15.0988 101.096 15.2063 101.508 15.2085C101.929 15.2108 102.323 15.1076 102.688 14.8988C103.063 14.6805 103.361 14.3659 103.584 13.9552C103.816 13.5444 103.934 13.066 103.937 12.52ZM108.898 5.90746L108.84 16.5417L107.202 16.5328L107.26 5.89857L108.898 5.90746ZM114.425 16.7013C113.678 16.6973 113.003 16.526 112.401 16.1874C111.8 15.8392 111.328 15.3576 110.987 14.7426C110.645 14.118 110.477 13.3985 110.481 12.5842C110.485 11.7794 110.666 11.0667 111.024 10.4459C111.382 9.82506 111.869 9.34866 112.483 9.01667C113.098 8.68469 113.784 8.52074 114.541 8.52485C115.298 8.52895 115.982 8.70032 116.593 9.03896C117.205 9.3776 117.686 9.85925 118.037 10.4839C118.388 11.1085 118.562 11.8232 118.557 12.628C118.553 13.4328 118.367 14.1455 118 14.7663C117.632 15.387 117.131 15.8681 116.497 16.2096C115.873 16.5415 115.182 16.7054 114.425 16.7013ZM114.433 15.2786C114.854 15.2809 115.248 15.1825 115.613 14.9832C115.987 14.7841 116.291 14.4839 116.523 14.0828C116.755 13.6817 116.873 13.1937 116.876 12.6189C116.879 12.0441 116.771 11.5596 116.553 11.1657C116.335 10.7621 116.044 10.4587 115.682 10.2556C115.319 10.0524 114.926 9.94967 114.505 9.94738C114.083 9.94509 113.69 10.0436 113.325 10.2428C112.969 10.442 112.685 10.7423 112.472 11.1435C112.259 11.5352 112.151 12.0184 112.148 12.5932C112.143 13.4459 112.355 14.1081 112.784 14.5799C113.222 15.0421 113.772 15.2751 114.433 15.2786ZM121.83 9.8434C122.072 9.44232 122.39 9.13267 122.784 8.91445C123.187 8.68671 123.662 8.57431 124.208 8.57728L124.199 10.273L123.782 10.2707C123.14 10.2673 122.651 10.4275 122.314 10.7514C121.986 11.0754 121.82 11.6397 121.816 12.4445L121.793 16.612L120.155 16.6031L120.198 8.68487L121.836 8.69375L121.83 9.8434ZM132.95 12.5192C132.949 12.8162 132.928 13.0844 132.888 13.3237L126.838 13.2909C126.883 13.9234 127.115 14.4325 127.534 14.818C127.954 15.2035 128.47 15.3979 129.083 15.4012C129.964 15.406 130.589 15.0405 130.957 14.3048L132.725 14.3144C132.481 15.0412 132.042 15.6376 131.407 16.1036C130.782 16.5601 130.005 16.7858 129.076 16.7808C128.319 16.7767 127.639 16.6053 127.038 16.2667C126.446 15.9186 125.979 15.4371 125.637 14.822C125.305 14.1975 125.141 13.4781 125.146 12.6637C125.15 11.8494 125.317 11.1365 125.646 10.5252C125.985 9.90425 126.452 9.42775 127.048 9.09566C127.653 8.76362 128.344 8.5997 129.12 8.60391C129.867 8.60797 130.532 8.77444 131.115 9.10335C131.697 9.43225 132.15 9.89458 132.473 10.4903C132.795 11.0765 132.954 11.7528 132.95 12.5192ZM131.243 11.9926C131.237 11.389 131.024 10.904 130.604 10.5377C130.184 10.1713 129.663 9.98648 129.041 9.9831C128.475 9.98004 127.991 10.1594 127.586 10.5213C127.182 10.8736 126.94 11.3561 126.86 11.9688L131.243 11.9926Z" fill="#292929"/>
<path fill-rule="evenodd" clip-rule="evenodd" d="M5.74778 9.90511C2.68433 8.84825 0.366579 6.07616 0.0548127 2.63949L0 2.03528C4.63865 1.61447 8.74397 5.00646 9.21686 9.62767C9.21829 9.62807 9.21972 9.62847 9.22115 9.62887L9.5683 9.72608C8.81664 12.4103 6.03135 13.9769 3.34717 13.2252L3.00002 13.128C3.41526 11.6452 4.45116 10.5034 5.74778 9.90511Z" fill="url(#paint0_linear_131_23)"/>
<path d="M9 9.5C9 9.22386 9.22386 9 9.5 9C9.77614 9 10 9.22386 10 9.5V21H9V9.5Z" fill="url(#paint1_linear_131_23)"/>
<path d="M9 21V20L68.5 20C68.7761 20 69 20.2239 69 20.5C69 20.7761 68.7761 21 68.5 21L9 21Z" fill="url(#paint2_linear_131_23)"/>
<defs>
<linearGradient id="paint0_linear_131_23" x1="4.78416" y1="2" x2="4.78416" y2="13.4135" gradientUnits="userSpaceOnUse">
<stop stop-color="#991F35"/>
<stop offset="1" stop-color="#330A12"/>
</linearGradient>
<linearGradient id="paint1_linear_131_23" x1="9.5" y1="9" x2="9.5" y2="21" gradientUnits="userSpaceOnUse">
<stop stop-color="#991F35"/>
<stop offset="1" stop-color="#330A12"/>
</linearGradient>
<linearGradient id="paint2_linear_131_23" x1="9" y1="20.5" x2="69" y2="20.5" gradientUnits="userSpaceOnUse">
<stop stop-color="#991F35"/>
<stop offset="1" stop-color="#330A12"/>
</linearGradient>
</defs>
</svg>
