<svg width="7" height="13" viewBox="0 0 7 13" fill="none" xmlns="http://www.w3.org/2000/svg">
<path fill-rule="evenodd" clip-rule="evenodd" d="M1.78889 0.295654H1.05649V9.87929C0.629801 10.0301 0.324097 10.437 0.324097 10.9154C0.324097 11.3937 0.629801 11.8006 1.05649 11.9515V12.7464H1.78889V11.9515C2.21558 11.8006 2.52128 11.3937 2.52128 10.9154C2.52128 10.437 2.21558 10.0301 1.78889 9.87929V0.295654ZM3.98607 0.295654H3.25367V1.82295C2.82698 1.97377 2.52128 2.3807 2.52128 2.85903C2.52128 3.33737 2.82698 3.7443 3.25367 3.89511V12.7464H3.98607V3.89511C4.41276 3.7443 4.71846 3.33737 4.71846 2.85903C4.71846 2.3807 4.41276 1.97377 3.98607 1.82296V0.295654ZM5.45086 0.295654H6.18325V6.94972C6.60994 7.10053 6.91565 7.50746 6.91565 7.9858C6.91565 8.46413 6.60994 8.87106 6.18325 9.02188V12.7464H5.45086V9.02187C5.02417 8.87106 4.71846 8.46413 4.71846 7.9858C4.71846 7.50746 5.02417 7.10053 5.45086 6.94972V0.295654Z" fill="#1B1B1B" fill-opacity="0.22"/>
</svg>
