<svg width="12" height="7" viewBox="0 0 12 7" fill="none" xmlns="http://www.w3.org/2000/svg">
<path fill-rule="evenodd" clip-rule="evenodd" d="M7.81188 0.20609C8.08466 -0.0678636 8.52787 -0.0688163 8.80182 0.203962L11.1288 2.52095C11.277 2.66852 11.3453 2.86597 11.3336 3.05952C11.3761 3.14988 11.3999 3.2508 11.3999 3.35728C11.3999 3.53359 11.3347 3.69468 11.2271 3.81776C11.1965 3.94009 11.1325 4.05565 11.0352 4.14985L8.67681 6.43481C8.39915 6.70381 7.95599 6.6968 7.68698 6.41914C7.41798 6.14149 7.42499 5.69833 7.70265 5.42932L9.1188 4.05728H1.5999C1.2133 4.05728 0.899902 3.74388 0.899902 3.35728C0.899902 2.97068 1.2133 2.65728 1.5999 2.65728H9.28155L7.814 1.19604C7.54005 0.923259 7.5391 0.480044 7.81188 0.20609Z" fill="#991F35"/>
</svg>
