<svg width="160" height="20" viewBox="0 0 160 20" fill="none" xmlns="http://www.w3.org/2000/svg">
<path d="M20.3328 8.93177C20.0768 8.43219 19.7196 8.0566 19.2611 7.80502C18.8026 7.54386 18.2716 7.41164 17.6681 7.40836C17.007 7.40478 16.417 7.55008 15.8981 7.84427C15.3791 8.13845 14.9696 8.55778 14.6697 9.10225C14.3793 9.64678 14.2322 10.2783 14.2283 10.9968C14.2244 11.7154 14.3646 12.3532 14.649 12.9105C14.9431 13.4582 15.348 13.8819 15.8637 14.1817C16.3794 14.4815 16.9678 14.6332 17.6289 14.6368C18.5198 14.6416 19.2445 14.3964 19.8029 13.9013C20.3612 13.4061 20.705 12.7325 20.8342 11.8805L17.0834 11.8602L17.0905 10.5525L22.5945 10.5823L22.5875 11.8613C22.4779 12.6368 22.1962 13.349 21.7424 13.998C21.2982 14.6471 20.7158 15.1661 19.9951 15.555C19.2841 15.9344 18.4926 16.1217 17.6208 16.1169C16.6819 16.1119 15.8257 15.8916 15.052 15.4563C14.2784 15.0114 13.6637 14.3997 13.2081 13.6212C12.762 12.8427 12.5416 11.9649 12.5469 10.9877C12.5522 10.0105 12.7821 9.13513 13.2366 8.36156C13.7007 7.58804 14.3219 6.98783 15.1002 6.56092C15.8882 6.12448 16.7469 5.90878 17.6762 5.91382C18.7396 5.91959 19.6818 6.18817 20.5029 6.71956C21.3336 7.24142 21.9331 7.98238 22.3016 8.94245L20.3328 8.93177ZM31.3944 8.18699L31.3515 16.1052L29.7133 16.0963L29.7183 15.1622C29.4579 15.4865 29.1164 15.7434 28.6938 15.9327C28.2809 16.1125 27.8397 16.2011 27.3702 16.1986C26.7475 16.1952 26.1877 16.0628 25.691 15.8014C25.2038 15.5401 24.8178 15.1548 24.5332 14.6455C24.2581 14.1362 24.1225 13.5223 24.1264 12.8038L24.1517 8.14771L25.7755 8.15651L25.7516 12.5683C25.7478 13.2772 25.922 13.8243 26.2744 14.2094C26.6269 14.585 27.1097 14.7744 27.7228 14.7777C28.336 14.7811 28.8208 14.5969 29.1773 14.2252C29.5434 13.8439 29.7284 13.2988 29.7323 12.5899L29.7562 8.1781L31.3944 8.18699ZM34.3952 7.15418C34.0982 7.15256 33.8496 7.05062 33.6495 6.84834C33.4494 6.64606 33.3502 6.39642 33.3518 6.09943C33.3534 5.80244 33.4554 5.5539 33.6576 5.3538C33.8599 5.1537 34.1096 5.05446 34.4065 5.05607C34.694 5.05763 34.9377 5.15955 35.1378 5.36183C35.3379 5.5641 35.4371 5.81374 35.4355 6.11073C35.4339 6.40773 35.332 6.65627 35.1297 6.85637C34.9274 7.05646 34.6826 7.15573 34.3952 7.15418ZM35.1942 8.20759L35.1513 16.1258L33.513 16.1169L33.556 8.19871L35.1942 8.20759ZM36.7777 12.1395C36.7821 11.3443 36.9487 10.641 37.2778 10.0296C37.6164 9.41831 38.0693 8.94653 38.6364 8.61428C39.213 8.2725 39.8511 8.10351 40.5504 8.1073C41.0678 8.11011 41.5749 8.22783 42.0719 8.46046C42.5784 8.68356 42.9792 8.98274 43.2742 9.35798L43.2949 5.5354L44.9475 5.54437L44.8898 16.1786L43.2372 16.1696L43.2437 14.9769C42.9734 15.3586 42.598 15.6728 42.1176 15.9193C41.6468 16.1658 41.1049 16.2874 40.4917 16.2841C39.8019 16.2804 39.1706 16.1045 38.5976 15.7565C38.0343 15.3989 37.5867 14.9079 37.2547 14.2833C36.9324 13.6493 36.7734 12.9346 36.7777 12.1395ZM43.2587 12.2034C43.2617 11.6573 43.1493 11.1824 42.9215 10.7788C42.7034 10.3752 42.4128 10.0671 42.0499 9.85433C41.687 9.64158 41.2948 9.53407 40.8733 9.53178C40.4517 9.5295 40.0583 9.63275 39.6932 9.84155C39.328 10.0408 39.0294 10.3409 38.7973 10.7421C38.5748 11.1337 38.4621 11.6025 38.4591 12.1486C38.4561 12.6947 38.5637 13.1743 38.7818 13.5874C39.0095 14.0006 39.3048 14.3184 39.6677 14.5407C40.0402 14.7535 40.4324 14.861 40.8443 14.8633C41.2659 14.8656 41.6592 14.7623 42.0244 14.5535C42.3896 14.3447 42.6835 14.0397 42.906 13.6385C43.1382 13.2278 43.2558 12.7494 43.2587 12.2034ZM54.3213 12.0765C54.3197 12.3735 54.2991 12.6417 54.2594 12.881L48.2094 12.8482C48.2539 13.4807 48.4859 13.9898 48.9053 14.3753C49.3248 14.7608 49.8411 14.9552 50.4542 14.9585C51.3356 14.9633 51.9603 14.5978 52.3284 13.8621L54.096 13.8717C53.8525 14.5985 53.4134 15.1949 52.7785 15.6609C52.1533 16.1174 51.376 16.3431 50.4467 16.3381C49.6899 16.334 49.0106 16.1626 48.4088 15.824C47.8167 15.4759 47.3499 14.9944 47.0083 14.3793C46.6764 13.7548 46.5126 13.0354 46.517 12.221C46.5215 11.4067 46.6882 10.6938 47.0172 10.0825C47.3559 9.46155 47.8232 8.98505 48.419 8.65296C49.0244 8.32092 49.7151 8.15701 50.4911 8.16121C51.2384 8.16527 51.9033 8.33174 52.4859 8.66065C53.0686 8.98955 53.5212 9.45188 53.8437 10.0476C54.1662 10.6338 54.3254 11.3101 54.3213 12.0765ZM52.614 11.5499C52.6077 10.9463 52.3947 10.4613 51.9752 10.095C51.5556 9.72864 51.0345 9.54378 50.4117 9.5404C49.8465 9.53734 49.3617 9.71674 48.9574 10.0786C48.5531 10.4309 48.3109 10.9134 48.231 11.5261L52.614 11.5499ZM62.9992 9.69489L61.5334 9.68694L61.4978 16.2687L59.8451 16.2597L59.8808 9.67798L58.9467 9.67292L58.954 8.33645L59.8881 8.34152L59.8911 7.78106C59.8961 6.87092 60.1391 6.21118 60.6204 5.80182C61.1113 5.38293 61.8741 5.17629 62.9088 5.1819L62.9014 6.54711C62.4032 6.54441 62.053 6.63831 61.8507 6.82883C61.6486 7.00977 61.5462 7.33017 61.5437 7.79003L61.5407 8.35048L63.0065 8.35843L62.9992 9.69489ZM67.8493 16.4325C67.102 16.4284 66.4275 16.2571 65.8258 15.9185C65.2241 15.5703 64.7525 15.0887 64.4109 14.4737C64.0694 13.8491 63.9008 13.1297 63.9052 12.3153C63.9096 11.5106 64.0907 10.7978 64.4486 10.177C64.8064 9.55619 65.2928 9.0798 65.9078 8.74781C66.5227 8.41582 67.2087 8.25188 67.9655 8.25598C68.7224 8.26009 69.4064 8.43146 70.0178 8.7701C70.6291 9.10874 71.1103 9.59038 71.4614 10.215C71.8125 10.8397 71.9859 11.5544 71.9815 12.3591C71.9771 13.1639 71.7912 13.8766 71.4238 14.4974C71.0564 15.1181 70.5556 15.5992 69.9214 15.9407C69.2969 16.2727 68.6062 16.4366 67.8493 16.4325ZM67.857 15.0098C68.2786 15.0121 68.6719 14.9136 69.037 14.7144C69.4118 14.5152 69.7152 14.2151 69.9473 13.8139C70.1794 13.4128 70.297 12.9248 70.3001 12.35C70.3033 11.7752 70.1957 11.2908 69.9775 10.8968C69.7593 10.4932 69.4688 10.1899 69.1058 9.98669C68.7428 9.78353 68.3506 9.6808 67.929 9.67852C67.5075 9.67623 67.1142 9.77469 66.749 9.97391C66.3935 10.1732 66.1092 10.4734 65.8962 10.8747C65.6833 11.2663 65.5753 11.7495 65.5722 12.3244C65.5676 13.177 65.7796 13.8392 66.2081 14.311C66.6463 14.7733 67.196 15.0062 67.857 15.0098ZM75.2545 9.57453C75.4961 9.17346 75.814 8.86381 76.208 8.64559C76.6116 8.41784 77.0865 8.30545 77.6325 8.30841L77.6233 10.0041L77.2066 10.0019C76.5647 9.9984 76.0752 10.1586 75.7381 10.4825C75.4106 10.8065 75.2447 11.3709 75.2403 12.1756L75.2177 16.3431L73.5795 16.3342L73.6224 8.416L75.2607 8.42489L75.2545 9.57453ZM89.8499 9.40938C89.8472 9.91714 89.7248 10.3955 89.4828 10.8445C89.2409 11.2935 88.8557 11.6602 88.3272 11.9448C87.7988 12.2198 87.1226 12.355 86.2987 12.3506L84.488 12.3407L84.466 16.3932L82.8278 16.3844L82.8819 6.39679L86.3309 6.4155C87.0973 6.41965 87.7433 6.55729 88.2687 6.82839C88.8038 7.08997 89.1995 7.44661 89.4557 7.89829C89.7215 8.35002 89.8529 8.85372 89.8499 9.40938ZM86.3059 11.0141C86.9287 11.0175 87.3941 10.8811 87.7021 10.6049C88.0103 10.3192 88.1657 9.91761 88.1685 9.40026C88.1745 8.3081 87.5595 7.75866 86.3236 7.75196L84.5129 7.74214L84.4952 11.0043L86.3059 11.0141ZM93.0703 5.80535L93.0126 16.4396L91.3743 16.4307L91.432 5.79647L93.0703 5.80535ZM94.639 12.4533C94.6434 11.6581 94.81 10.9548 95.1391 10.3434C95.4777 9.73211 95.9306 9.26033 96.4977 8.92808C97.0743 8.5863 97.7076 8.41728 98.3974 8.42103C99.0201 8.4244 99.5607 8.55188 100.019 8.80347C100.487 9.04552 100.859 9.34933 101.135 9.71489L101.141 8.56525L102.794 8.57421L102.751 16.4924L101.099 16.4834L101.105 15.3051C100.825 15.6772 100.445 15.9865 99.9646 16.233C99.4842 16.4795 98.9374 16.6011 98.3243 16.5977C97.6441 16.594 97.0223 16.4182 96.4589 16.0703C95.8956 15.7127 95.448 15.2217 95.116 14.5971C94.7937 13.9631 94.6347 13.2484 94.639 12.4533ZM101.12 12.5172C101.123 11.9711 101.011 11.4962 100.783 11.0926C100.565 10.689 100.274 10.3809 99.9112 10.1681C99.5483 9.95539 99.1561 9.84787 98.7346 9.84558C98.313 9.8433 97.9196 9.94655 97.5545 10.1553C97.1893 10.3546 96.8907 10.6547 96.6586 11.0559C96.4361 11.4475 96.3234 11.9163 96.3204 12.4624C96.3174 13.0085 96.425 13.4881 96.6431 13.9012C96.8708 14.3144 97.1661 14.6322 97.529 14.8545C97.9015 15.0673 98.2937 15.1748 98.7056 15.1771C99.1272 15.1794 99.5205 15.0761 99.8857 14.8673C100.251 14.6585 100.545 14.3535 100.767 13.9523C101 13.5416 101.117 13.0632 101.12 12.5172ZM104.378 12.5348C104.383 11.7205 104.549 11.0076 104.879 10.3963C105.217 9.77535 105.68 9.29883 106.266 8.96668C106.852 8.63454 107.524 8.47052 108.281 8.47462C109.239 8.47982 110.028 8.71404 110.648 9.17727C111.278 9.63098 111.701 10.28 111.916 11.1242L110.149 11.1147C110.007 10.7211 109.779 10.4133 109.464 10.1912C109.149 9.96913 108.752 9.8568 108.273 9.8542C107.602 9.85056 107.065 10.0872 106.66 10.564C106.264 11.0313 106.064 11.6913 106.06 12.5439C106.055 13.3966 106.248 14.0635 106.638 14.5447C107.038 15.0259 107.573 15.2683 108.244 15.2719C109.192 15.2771 109.822 14.8637 110.133 14.0319L111.901 14.0415C111.666 14.845 111.232 15.4845 110.597 15.9601C109.962 16.4261 109.175 16.6566 108.236 16.6515C107.479 16.6474 106.81 16.4761 106.227 16.1376C105.644 15.7895 105.187 15.308 104.855 14.6931C104.533 14.0686 104.374 13.3492 104.378 12.5348ZM120.799 12.4371C120.798 12.7341 120.777 13.0022 120.737 13.2415L114.687 13.2087C114.732 13.8413 114.964 14.3503 115.383 14.7358C115.803 15.1213 116.319 15.3157 116.932 15.319C117.814 15.3238 118.438 14.9583 118.806 14.2226L120.574 14.2322C120.331 14.959 119.891 15.5554 119.257 16.0215C118.631 16.4779 117.854 16.7037 116.925 16.6986C116.168 16.6945 115.489 16.5232 114.887 16.1846C114.295 15.8365 113.828 15.3549 113.486 14.7399C113.154 14.1153 112.991 13.3959 112.995 12.5816C112.999 11.7672 113.166 11.0544 113.495 10.443C113.834 9.82209 114.301 9.34559 114.897 9.01349C115.502 8.68145 116.193 8.51754 116.969 8.52175C117.716 8.5258 118.381 8.69228 118.964 9.02118C119.547 9.35008 119.999 9.81241 120.322 10.4082C120.644 10.9943 120.803 11.6706 120.799 12.4371ZM119.092 11.9104C119.086 11.3068 118.873 10.8219 118.453 10.4555C118.034 10.0892 117.513 9.90431 116.89 9.90093C116.325 9.89787 115.84 10.0773 115.435 10.4391C115.031 10.7914 114.789 11.2739 114.709 11.8867L119.092 11.9104ZM132.018 8.60336C132.641 8.60674 133.196 8.73909 133.683 9.00041C134.179 9.26178 134.565 9.6471 134.841 10.1564C135.125 10.6657 135.266 11.2796 135.262 11.9981L135.236 16.6686L133.612 16.6598L133.636 12.2336C133.64 11.5247 133.466 10.9824 133.114 10.6069C132.761 10.2217 132.278 10.0275 131.665 10.0242C131.052 10.0209 130.562 10.2098 130.196 10.5911C129.84 10.9628 129.66 11.5031 129.656 12.212L129.632 16.6382L128.008 16.6294L128.032 12.2032C128.036 11.4943 127.861 10.952 127.509 10.5765C127.157 10.1913 126.674 9.99711 126.061 9.99378C125.448 9.99046 124.958 10.1794 124.592 10.5607C124.235 10.9324 124.055 11.4727 124.051 12.1817L124.027 16.6078L122.389 16.5989L122.432 8.68071L124.07 8.6896L124.065 9.59494C124.335 9.27066 124.677 9.01863 125.09 8.83884C125.503 8.65904 125.944 8.57042 126.413 8.57296C127.046 8.57639 127.61 8.71358 128.107 8.98454C128.604 9.25549 128.985 9.64557 129.25 10.1548C129.492 9.67707 129.868 9.30067 130.377 9.02559C130.887 8.74093 131.433 8.60019 132.018 8.60336ZM144.601 12.5661C144.599 12.8631 144.578 13.1313 144.539 13.3706L138.489 13.3378C138.533 13.9703 138.765 14.4794 139.185 14.8649C139.604 15.2504 140.12 15.4448 140.734 15.4481C141.615 15.4529 142.24 15.0874 142.608 14.3517L144.375 14.3613C144.132 15.0881 143.693 15.6845 143.058 16.1505C142.433 16.607 141.655 16.8327 140.726 16.8277C139.969 16.8236 139.29 16.6522 138.688 16.3137C138.096 15.9655 137.629 15.484 137.288 14.869C136.956 14.2444 136.792 13.525 136.796 12.7106C136.801 11.8963 136.968 11.1835 137.297 10.5721C137.635 9.95117 138.103 9.47467 138.698 9.14258C139.304 8.81054 139.994 8.64662 140.77 8.65083C141.518 8.65488 142.183 8.82136 142.765 9.15026C143.348 9.47916 143.801 9.94149 144.123 10.5372C144.446 11.1234 144.605 11.7997 144.601 12.5661ZM142.893 12.0395C142.887 11.4359 142.674 10.9509 142.255 10.5846C141.835 10.2183 141.314 10.0334 140.691 10.03C140.126 10.0269 139.641 10.2064 139.237 10.5682C138.832 10.9205 138.59 11.403 138.51 12.0158L142.893 12.0395ZM150.229 8.70212C150.852 8.7055 151.407 8.83785 151.894 9.09917C152.391 9.36054 152.777 9.74586 153.052 10.2551C153.327 10.7644 153.462 11.3783 153.458 12.0968L153.433 16.7673L151.809 16.7585L151.833 12.3323C151.837 11.6234 151.663 11.0811 151.31 10.7056C150.958 10.3204 150.475 10.1262 149.862 10.1229C149.249 10.1195 148.759 10.3085 148.393 10.6897C148.037 11.0615 147.856 11.6018 147.853 12.3107L147.829 16.7369L146.19 16.728L146.233 8.80979L147.871 8.81868L147.867 9.72403C148.137 9.39975 148.478 9.14771 148.891 8.96792C149.314 8.78818 149.76 8.69958 150.229 8.70212ZM157.47 10.2072L157.446 14.5903C157.444 14.8873 157.51 15.1032 157.644 15.238C157.787 15.3634 158.026 15.4269 158.361 15.4288L159.367 15.4342L159.36 16.7994L158.066 16.7924C157.329 16.7884 156.764 16.6129 156.373 16.2659C155.983 15.9188 155.789 15.3573 155.793 14.5813L155.817 10.1983L154.883 10.1932L154.89 8.85674L155.824 8.86181L155.835 6.89304L157.488 6.902L157.477 8.87077L159.403 8.88122L159.395 10.2177L157.47 10.2072Z" fill="#292929"/>
<path fill-rule="evenodd" clip-rule="evenodd" d="M5.74778 8.90511C2.68433 7.84825 0.366579 5.07616 0.0548127 1.63949L0 1.03528C4.63865 0.614472 8.74397 4.00646 9.21686 8.62767C9.21829 8.62807 9.21972 8.62847 9.22115 8.62887L9.5683 8.72608C8.81664 11.4103 6.03135 12.9769 3.34717 12.2252L3.00002 12.128C3.41526 10.6452 4.45116 9.50338 5.74778 8.90511Z" fill="url(#paint0_linear_131_24)"/>
<path d="M9 8.5C9 8.22386 9.22386 8 9.5 8C9.77614 8 10 8.22386 10 8.5V20H9V8.5Z" fill="url(#paint1_linear_131_24)"/>
<path d="M9 20V19L68.5 19C68.7761 19 69 19.2239 69 19.5C69 19.7761 68.7761 20 68.5 20L9 20Z" fill="url(#paint2_linear_131_24)"/>
<defs>
<linearGradient id="paint0_linear_131_24" x1="4.78416" y1="1" x2="4.78416" y2="12.4135" gradientUnits="userSpaceOnUse">
<stop stop-color="#991F35"/>
<stop offset="1" stop-color="#330A12"/>
</linearGradient>
<linearGradient id="paint1_linear_131_24" x1="9.5" y1="8" x2="9.5" y2="20" gradientUnits="userSpaceOnUse">
<stop stop-color="#991F35"/>
<stop offset="1" stop-color="#330A12"/>
</linearGradient>
<linearGradient id="paint2_linear_131_24" x1="9" y1="19.5" x2="69" y2="19.5" gradientUnits="userSpaceOnUse">
<stop stop-color="#991F35"/>
<stop offset="1" stop-color="#330A12"/>
</linearGradient>
</defs>
</svg>
