<svg width="126" height="21" viewBox="0 0 126 21" fill="none" xmlns="http://www.w3.org/2000/svg">
<path d="M18.4882 16.0463L16.2105 12.0388L14.9603 12.032L14.9386 16.027L13.3004 16.0181L13.3546 6.03057L16.8035 6.04927C17.5699 6.05343 18.2159 6.19106 18.7413 6.46217C19.2764 6.73333 19.672 7.09475 19.9283 7.54644C20.1941 7.99817 20.3255 8.50187 20.3225 9.05753C20.3189 9.709 20.1241 10.3019 19.738 10.8364C19.3615 11.3613 18.7799 11.7174 17.9933 11.9047L20.4426 16.0569L18.4882 16.0463ZM14.9674 10.7243L16.7781 10.7341C17.3912 10.7374 17.8519 10.5866 18.1602 10.2817C18.478 9.97685 18.6383 9.56575 18.6411 9.04841C18.6439 8.53107 18.4928 8.12786 18.1878 7.83879C17.8828 7.54013 17.419 7.38912 16.7963 7.38574L14.9856 7.37592L14.9674 10.7243ZM29.6599 11.9536C29.6583 12.2506 29.6377 12.5188 29.5981 12.7581L23.5481 12.7253C23.5925 13.3578 23.8245 13.8669 24.244 14.2524C24.6634 14.6379 25.1797 14.8323 25.7929 14.8356C26.6743 14.8404 27.299 14.4749 27.667 13.7392L29.4346 13.7488C29.1912 14.4756 28.752 15.072 28.1172 15.538C27.4919 15.9945 26.7147 16.2202 25.7854 16.2152C25.0285 16.2111 24.3492 16.0397 23.7475 15.7011C23.1554 15.353 22.6885 14.8715 22.347 14.2564C22.015 13.6319 21.8513 12.9125 21.8557 12.0981C21.8601 11.2838 22.0268 10.5709 22.3559 9.95956C22.6946 9.33865 23.1618 8.86215 23.7576 8.53006C24.363 8.19802 25.0537 8.03411 25.8297 8.03831C26.577 8.04237 27.242 8.20884 27.8246 8.53775C28.4072 8.86665 28.8598 9.32898 29.1823 9.92473C29.5049 10.5109 29.6641 11.1872 29.6599 11.9536ZM27.9526 11.427C27.9463 10.8234 27.7334 10.3384 27.3138 9.97208C26.8943 9.60574 26.3731 9.42088 25.7504 9.4175C25.1851 9.41444 24.7004 9.59384 24.296 9.95571C23.8917 10.308 23.6496 10.7905 23.5696 11.4032L27.9526 11.427ZM30.725 12.1462C30.7294 11.3319 30.8962 10.619 31.2252 10.0077C31.5639 9.38676 32.0264 8.91023 32.6126 8.57809C33.1988 8.24594 33.8704 8.08192 34.6272 8.08603C35.5853 8.09122 36.3744 8.32544 36.9946 8.78867C37.6245 9.24238 38.0473 9.89137 38.2631 10.7356L36.4955 10.7261C36.3539 10.3325 36.1257 10.0247 35.8107 9.8026C35.4958 9.58053 35.0988 9.4682 34.6197 9.4656C33.9491 9.46197 33.4113 9.69857 33.0063 10.1754C32.611 10.6427 32.411 11.3027 32.4064 12.1554C32.4018 13.008 32.5946 13.6749 32.9848 14.1561C33.3845 14.6373 33.9197 14.8797 34.5904 14.8833C35.5388 14.8885 36.1686 14.4751 36.4797 13.6433L38.2473 13.6529C38.013 14.4564 37.5784 15.0959 36.9435 15.5715C36.3086 16.0375 35.5218 16.268 34.5829 16.2629C33.826 16.2588 33.1563 16.0875 32.5737 15.749C31.9912 15.4009 31.5339 14.9194 31.2019 14.3045C30.8796 13.68 30.7206 12.9606 30.725 12.1462ZM47.146 12.0485C47.1444 12.3455 47.1238 12.6136 47.0842 12.8529L41.0342 12.8201C41.0786 13.4527 41.3106 13.9617 41.7301 14.3472C42.1495 14.7327 42.6658 14.9271 43.279 14.9304C44.1604 14.9352 44.7851 14.5698 45.1531 13.834L46.9207 13.8436C46.6773 14.5704 46.2381 15.1668 45.6033 15.6329C44.978 16.0893 44.2008 16.3151 43.2715 16.31C42.5146 16.3059 41.8353 16.1346 41.2336 15.796C40.6415 15.4479 40.1746 14.9663 39.8331 14.3513C39.5011 13.7267 39.3374 13.0073 39.3418 12.193C39.3462 11.3786 39.5129 10.6658 39.842 10.0544C40.1807 9.43349 40.6479 8.95699 41.2437 8.62489C41.8491 8.29285 42.5398 8.12894 43.3158 8.13315C44.0631 8.1372 44.728 8.30368 45.3107 8.63258C45.8933 8.96148 46.3459 9.42381 46.6684 10.0196C46.991 10.6057 47.1502 11.282 47.146 12.0485ZM45.4387 11.5218C45.4324 10.9182 45.2195 10.4333 44.7999 10.0669C44.3804 9.70057 43.8592 9.51571 43.2365 9.51233C42.6712 9.50927 42.1864 9.68867 41.7821 10.0505C41.3778 10.4028 41.1357 10.8853 41.0557 11.4981L45.4387 11.5218ZM52.7744 8.18444C53.3971 8.18782 53.9521 8.32017 54.4393 8.58149C54.936 8.84286 55.322 9.22818 55.597 9.73745C55.8721 10.2467 56.0077 10.8606 56.0038 11.5791L55.9785 16.2496L54.3546 16.2408L54.3786 11.8146C54.3825 11.1057 54.2081 10.5634 53.8557 10.1879C53.5033 9.80274 53.0205 9.60851 52.4074 9.60518C51.7942 9.60186 51.3046 9.79082 50.9385 10.1721C50.582 10.5438 50.4018 11.0841 50.398 11.7931L50.3739 16.2192L48.7357 16.2103L48.7786 8.29211L50.4169 8.301L50.412 9.20634C50.682 8.88207 51.0235 8.63003 51.4364 8.45024C51.8589 8.2705 52.3049 8.1819 52.7744 8.18444ZM60.0151 9.68956L59.9914 14.0726C59.9898 14.3696 60.0557 14.5855 60.1891 14.7204C60.3321 14.8457 60.5713 14.9093 60.9066 14.9111L61.9125 14.9165L61.9051 16.2817L60.6118 16.2747C59.8741 16.2707 59.3098 16.0952 58.9188 15.7482C58.5279 15.4012 58.3346 14.8396 58.3388 14.0636L58.3625 9.68059L57.4284 9.67553L57.4357 8.33906L58.3698 8.34413L58.3805 6.37536L60.0331 6.38432L60.0224 8.35309L61.9481 8.36353L61.9408 9.7L60.0151 9.68956ZM74.1702 9.33519C74.1674 9.84295 74.0451 10.3213 73.8031 10.7703C73.5612 11.2193 73.1759 11.5861 72.6475 11.8706C72.119 12.1456 71.4429 12.2808 70.6189 12.2764L68.8083 12.2665L68.7863 16.3191L67.148 16.3102L67.2022 6.3226L70.6511 6.34131C71.4176 6.34546 72.0635 6.4831 72.589 6.7542C73.1241 7.01579 73.5197 7.37242 73.776 7.8241C74.0418 8.27583 74.1732 8.77953 74.1702 9.33519ZM70.6262 10.9399C71.2489 10.9433 71.7143 10.8069 72.0224 10.5307C72.3305 10.245 72.486 9.84342 72.4888 9.32607C72.4947 8.23391 71.8798 7.68447 70.6439 7.67777L68.8332 7.66795L68.8155 10.9301L70.6262 10.9399ZM77.3696 9.59685C77.6112 9.19577 77.9291 8.88613 78.3231 8.66791C78.7267 8.44016 79.2016 8.32777 79.7476 8.33073L79.7384 10.0265L79.3217 10.0242C78.6798 10.0207 78.1903 10.1809 77.8532 10.5048C77.5257 10.8288 77.3598 11.3932 77.3554 12.1979L77.3328 16.3654L75.6946 16.3565L75.7375 8.43832L77.3758 8.4472L77.3696 9.59685ZM84.6437 16.5344C83.8965 16.5303 83.222 16.359 82.6202 16.0204C82.0185 15.6723 81.5469 15.1907 81.2053 14.5757C80.8638 13.9511 80.6953 13.2316 80.6997 12.4173C80.704 11.6125 80.8851 10.8997 81.243 10.2789C81.6009 9.65812 82.0873 9.18173 82.7022 8.84974C83.3172 8.51775 84.0031 8.35381 84.7599 8.35791C85.5168 8.36202 86.2009 8.53339 86.8122 8.87203C87.4235 9.21067 87.9048 9.69231 88.2559 10.317C88.6069 10.9416 88.7803 11.6563 88.7759 12.4611C88.7716 13.2658 88.5857 13.9786 88.2183 14.5993C87.8508 15.2201 87.35 15.7012 86.7158 16.0426C86.0913 16.3746 85.4006 16.5385 84.6437 16.5344ZM84.6515 15.1117C85.073 15.114 85.4663 15.0155 85.8315 14.8163C86.2062 14.6171 86.5096 14.317 86.7417 13.9159C86.9739 13.5147 87.0915 13.0268 87.0946 12.4519C87.0977 11.8771 86.9902 11.3927 86.7719 10.9987C86.5538 10.5951 86.2632 10.2918 85.9002 10.0886C85.5373 9.88545 85.145 9.78273 84.7235 9.78044C84.302 9.77816 83.9086 9.87662 83.5435 10.0758C83.1879 10.2751 82.9036 10.5754 82.6907 10.9766C82.4778 11.3682 82.3698 11.8515 82.3667 12.4263C82.362 13.279 82.574 13.9412 83.0026 14.413C83.4408 14.8752 83.9904 15.1081 84.6515 15.1117ZM91.2561 7.4734C90.9591 7.47179 90.7105 7.36984 90.5104 7.16756C90.3103 6.96528 90.2111 6.71565 90.2127 6.41865C90.2143 6.12166 90.3163 5.87312 90.5185 5.67302C90.7208 5.47292 90.9705 5.37368 91.2674 5.37529C91.5549 5.37685 91.7986 5.47877 91.9987 5.68105C92.1988 5.88333 92.2981 6.13296 92.2964 6.42995C92.2948 6.72695 92.1929 6.97549 91.9906 7.17559C91.7883 7.37569 91.5435 7.47496 91.2561 7.4734ZM92.0038 17.997C91.9996 18.7731 91.8001 19.3324 91.4055 19.6752C91.0203 20.0276 90.4589 20.2018 89.7212 20.1978L88.8734 20.1932L88.8808 18.8136L89.4413 18.8167C89.7766 18.8185 90.0117 18.7527 90.1465 18.6193C90.2909 18.4955 90.3639 18.2851 90.3655 17.9882L90.4169 8.51793L92.0551 8.52681L92.0038 17.997ZM101.443 12.3429C101.441 12.6399 101.421 12.9081 101.381 13.1474L95.3309 13.1146C95.3753 13.7471 95.6073 14.2562 96.0268 14.6417C96.4462 15.0272 96.9625 15.2216 97.5757 15.2249C98.4571 15.2297 99.0818 14.8642 99.4499 14.1285L101.217 14.1381C100.974 14.8649 100.535 15.4613 99.9 15.9273C99.2747 16.3838 98.4975 16.6095 97.5682 16.6045C96.8113 16.6004 96.132 16.429 95.5303 16.0904C94.9382 15.7423 94.4713 15.2608 94.1298 14.6457C93.7978 14.0212 93.6341 13.3018 93.6385 12.4874C93.6429 11.6731 93.8096 10.9602 94.1387 10.3489C94.4774 9.72796 94.9446 9.25146 95.5404 8.91936C96.1458 8.58732 96.8365 8.42341 97.6125 8.42762C98.3598 8.43167 99.0248 8.59815 99.6074 8.92705C100.19 9.25595 100.643 9.71828 100.965 10.314C101.288 10.9002 101.447 11.5765 101.443 12.3429ZM99.7354 11.8163C99.7291 11.2127 99.5162 10.7277 99.0966 10.3614C98.6771 9.99504 98.1559 9.81018 97.5332 9.8068C96.968 9.80374 96.4832 9.98314 96.0788 10.345C95.6745 10.6973 95.4324 11.1798 95.3524 11.7925L99.7354 11.8163ZM102.508 12.5355C102.512 11.7212 102.679 11.0083 103.008 10.397C103.347 9.77606 103.809 9.29953 104.395 8.96739C104.982 8.63524 105.653 8.47122 106.41 8.47533C107.368 8.48052 108.157 8.71474 108.777 9.17797C109.407 9.63168 109.83 10.2807 110.046 11.1249L108.278 11.1154C108.137 10.7218 107.908 10.414 107.594 10.1919C107.279 9.96983 106.882 9.8575 106.403 9.8549C105.732 9.85127 105.194 10.0879 104.789 10.5647C104.394 11.032 104.194 11.692 104.189 12.5447C104.185 13.3973 104.377 14.0642 104.768 14.5454C105.167 15.0266 105.703 15.269 106.373 15.2726C107.322 15.2778 107.951 14.8644 108.263 14.0326L110.03 14.0422C109.796 14.8457 109.361 15.4852 108.726 15.9608C108.091 16.4268 107.305 16.6573 106.366 16.6522C105.609 16.6481 104.939 16.4768 104.357 16.1383C103.774 15.7903 103.317 15.3087 102.985 14.6938C102.662 14.0693 102.503 13.3499 102.508 12.5355ZM113.596 9.98014L113.572 14.3632C113.571 14.6602 113.637 14.8761 113.77 15.0109C113.913 15.1363 114.152 15.1998 114.488 15.2017L115.494 15.2071L115.486 16.5723L114.193 16.5653C113.455 16.5613 112.891 16.3858 112.5 16.0388C112.109 15.6917 111.916 15.1302 111.92 14.3542L111.944 9.97118L111.009 9.96611L111.017 8.62965L111.951 8.63472L111.961 6.66594L113.614 6.67491L113.603 8.64368L115.529 8.65412L115.522 9.99059L113.596 9.98014ZM119.869 16.7254C119.247 16.7221 118.687 16.6088 118.19 16.3858C117.703 16.1532 117.316 15.8445 117.031 15.4598C116.746 15.0654 116.595 14.6287 116.578 14.1495L118.274 14.1587C118.301 14.4942 118.457 14.7777 118.743 15.0092C119.039 15.2311 119.407 15.3433 119.848 15.3457C120.308 15.3482 120.663 15.2639 120.913 15.0928C121.173 14.9122 121.303 14.6829 121.305 14.4051C121.306 14.1081 121.164 13.887 120.877 13.7417C120.6 13.5965 120.156 13.436 119.543 13.2602C118.95 13.0942 118.467 12.9335 118.094 12.7781C117.722 12.6228 117.397 12.3863 117.121 12.0687C116.855 11.7511 116.723 11.3336 116.726 10.8163C116.728 10.3947 116.854 10.0122 117.105 9.66864C117.356 9.31552 117.712 9.03961 118.173 8.84091C118.644 8.64227 119.181 8.54459 119.784 8.54786C120.685 8.55274 121.407 8.7866 121.951 9.24942C122.504 9.70271 122.798 10.3223 122.832 11.1081L121.193 11.0992C121.167 10.7445 121.024 10.4611 120.767 10.249C120.509 10.0368 120.16 9.92952 119.719 9.92713C119.288 9.92479 118.957 10.0044 118.727 10.166C118.496 10.3277 118.38 10.5426 118.378 10.8109C118.377 11.0216 118.453 11.1993 118.605 11.3438C118.758 11.4884 118.944 11.6043 119.164 11.6917C119.384 11.7696 119.709 11.8719 120.139 11.9988C120.713 12.1552 121.182 12.3159 121.545 12.4807C121.918 12.636 122.238 12.8677 122.504 13.1757C122.771 13.4837 122.908 13.8917 122.914 14.3995C122.912 14.8497 122.785 15.2514 122.534 15.6046C122.283 15.9577 121.927 16.2336 121.466 16.4323C121.015 16.631 120.483 16.7288 119.869 16.7254Z" fill="#292929"/>
<path fill-rule="evenodd" clip-rule="evenodd" d="M5.74778 8.90511C2.68433 7.84825 0.366579 5.07616 0.0548127 1.63949L0 1.03528C4.63865 0.614472 8.74397 4.00646 9.21686 8.62767C9.21829 8.62807 9.21972 8.62847 9.22115 8.62887L9.5683 8.72608C8.81664 11.4103 6.03135 12.9769 3.34717 12.2252L3.00002 12.128C3.41526 10.6452 4.45116 9.50338 5.74778 8.90511Z" fill="url(#paint0_linear_131_22)"/>
<path d="M9 8.5C9 8.22386 9.22386 8 9.5 8C9.77614 8 10 8.22386 10 8.5V20H9V8.5Z" fill="url(#paint1_linear_131_22)"/>
<path d="M9 20V19L68.5 19C68.7761 19 69 19.2239 69 19.5C69 19.7761 68.7761 20 68.5 20L9 20Z" fill="url(#paint2_linear_131_22)"/>
<defs>
<linearGradient id="paint0_linear_131_22" x1="4.78416" y1="1" x2="4.78416" y2="12.4135" gradientUnits="userSpaceOnUse">
<stop stop-color="#991F35"/>
<stop offset="1" stop-color="#330A12"/>
</linearGradient>
<linearGradient id="paint1_linear_131_22" x1="9.5" y1="8" x2="9.5" y2="20" gradientUnits="userSpaceOnUse">
<stop stop-color="#991F35"/>
<stop offset="1" stop-color="#330A12"/>
</linearGradient>
<linearGradient id="paint2_linear_131_22" x1="9" y1="19.5" x2="69" y2="19.5" gradientUnits="userSpaceOnUse">
<stop stop-color="#991F35"/>
<stop offset="1" stop-color="#330A12"/>
</linearGradient>
</defs>
</svg>
